<?xml version="1.0" encoding="UTF-8"?>
<svg width="888px" height="304px" viewBox="0 0 888 304" version="1.1" xmlns="http://www.w3.org/2000/svg" xmlns:xlink="http://www.w3.org/1999/xlink">
    <title>Envoy Logo - White</title>
    <g id="envoy-white" stroke="none" stroke-width="1" fill="none" fill-rule="evenodd">
        <path d="M671.105522,116.970011 L691.793366,171.359324 L692.066473,171.359324 L711.86672,116.970011 L726,116.970011 L692.885794,201.689204 C691.72509,204.75627 690.496109,207.482552 689.198851,210.004362 C687.901594,212.526172 686.399506,214.63904 684.624312,216.411123 C682.849117,218.183206 680.732539,219.546347 678.274577,220.500545 C675.748339,221.454744 672.744163,222 669.125498,222 C667.145473,222 665.165448,221.863686 663.185423,221.659215 C661.205399,221.386587 659.225374,220.909487 657.381903,220.091603 L659.020544,208.027808 C661.683336,209.118321 664.277851,209.663577 666.940643,209.663577 C668.988944,209.663577 670.695862,209.390949 672.129673,208.845692 C673.563484,208.300436 674.792465,207.550709 675.816615,206.460196 C676.840766,205.437841 677.660087,204.211014 678.411131,202.847874 C679.093898,201.484733 679.776665,199.917121 680.459432,198.145038 L684.760865,187.103599 L655.811538,116.970011 L671.105522,116.970011 Z M183.111227,141.427231 L183.332275,151.40311 L171.543029,156.483078 L172.132492,181.477992 L196.189922,196.386594 L206.837085,191.711551 L216.452688,197.674991 L198.768819,205.294943 C198.658295,205.331755 198.51093,205.405377 198.363564,205.442189 C197.045942,205.85794 195.532513,205.686749 194.253285,204.959303 L194.016279,204.816395 L165.169468,186.962885 C163.730899,186.086424 162.82699,184.675739 162.712341,183.207816 L162.701095,182.987258 L162.001108,153.02281 C161.965941,151.547009 162.769982,150.272454 164.092805,149.615356 L164.285275,149.525731 L183.111227,141.427231 Z M213.173804,118.493753 L213.431694,130.126143 L198.621454,136.494509 L199.431964,170.32415 L231.962915,190.459965 L246.257376,184.312467 L257.45716,191.233003 L234.947068,200.951203 C234.799702,201.024825 234.615495,201.098448 234.46813,201.135259 C232.967328,201.623494 231.202003,201.384883 229.673356,200.544625 L229.420859,200.399032 L191.290016,176.766138 C189.633755,175.745023 188.550521,174.083989 188.427216,172.362916 L188.416388,172.127907 L187.495353,132.48207 C187.460046,130.75347 188.372127,129.261524 189.939765,128.492216 L190.147933,128.396009 L213.173804,118.493753 Z M268.804309,82.2713735 C270.646379,81.7192031 272.78318,82.013694 274.588408,83.1180348 L274.588408,83.1180348 L323.476937,113.413785 C325.466373,114.62856 326.71898,116.653185 326.829504,118.714621 L326.829504,118.714621 L328.009268,169.5143 C328.04527,171.575736 326.866346,173.342682 324.950593,174.189343 L324.950593,174.189343 L277.240988,194.730082 C277.056781,194.840517 276.872574,194.877328 276.688367,194.950951 C274.846298,195.503121 272.709497,195.20863 270.904268,194.104289 L270.904268,194.104289 L222.015739,163.84535 C220.026304,162.630575 218.773696,160.60595 218.736855,158.544514 L218.736855,158.544514 L217.52025,107.708024 C217.484247,105.646588 218.663172,103.879643 220.578924,103.032981 L220.578924,103.032981 L268.288529,82.4554303 C268.435895,82.3818076 268.620102,82.3449962 268.804309,82.2713735 Z M397.520731,115.197928 C403.733912,115.197928 408.922942,116.288441 413.224375,118.401309 C417.525808,120.582334 421.00792,123.376772 423.738989,126.852781 C426.470057,130.32879 428.450082,134.281897 429.679063,138.643948 C430.908044,143.005998 431.522534,147.436205 431.522534,151.934569 L431.522534,156.637405 L375.603906,156.637405 C375.603906,159.704471 376.286673,162.430752 377.58393,164.952563 C378.881188,167.474373 380.656383,169.587241 382.841237,171.359324 C385.026092,173.131407 387.484054,174.494547 390.351676,175.448746 C393.219298,176.402944 396.155197,176.948201 399.159372,176.948201 C403.255975,176.948201 406.874641,175.994002 409.947093,174.085605 C413.019545,172.177208 415.81889,169.655398 418.345128,166.520174 L428.381805,174.153762 C421.00792,183.695747 410.698137,188.398582 397.452454,188.398582 C391.92204,188.398582 386.93784,187.444384 382.499854,185.604144 C378.061867,183.763904 374.238371,181.173937 371.165919,177.902399 C368.093467,174.630862 365.703782,170.745911 363.996864,166.315703 C362.358223,161.885496 361.470626,157.046347 361.470626,151.798255 C361.470626,146.618321 362.358223,141.779171 364.201695,137.280807 C366.045166,132.8506 368.503128,128.965649 371.712133,125.694111 C374.921139,122.422574 378.676358,119.832606 383.114344,117.992366 C387.552331,116.152126 392.331701,115.197928 397.520731,115.197928 Z M617.644855,115.266085 C622.833886,115.266085 627.681532,116.220284 632.256072,118.12868 C636.762335,120.037077 640.722385,122.695202 644.067944,125.966739 C647.413503,129.306434 650.008018,133.191385 651.919766,137.553435 C653.831514,141.983642 654.787388,146.754635 654.787388,151.798255 C654.787388,156.910033 653.831514,161.681025 651.919766,166.111232 C650.008018,170.541439 647.345226,174.42639 644.067944,177.697928 C640.722385,180.969466 636.830612,183.559433 632.256072,185.46783 C627.749809,187.376227 622.902162,188.330425 617.644855,188.330425 C612.455825,188.330425 607.608179,187.376227 603.033639,185.46783 C598.527376,183.559433 594.567326,180.969466 591.221767,177.697928 C587.876208,174.42639 585.281693,170.541439 583.369945,166.111232 C581.458197,161.681025 580.502323,156.910033 580.502323,151.798255 C580.502323,146.686478 581.458197,141.915485 583.369945,137.553435 C585.281693,133.123228 587.944485,129.238277 591.221767,125.966739 C594.567326,122.627045 598.459099,120.037077 603.033639,118.12868 C607.539902,116.220284 612.387549,115.266085 617.644855,115.266085 Z M524.515418,116.970011 L545.408092,170.336968 L565.41317,116.970011 L579.546449,116.970011 L552.167487,186.694656 L537.55627,186.694656 L509.221434,116.970011 L524.515418,116.970011 Z M479.589341,115.129771 C482.9349,115.129771 486.143905,115.675027 489.216357,116.697383 C492.288809,117.719738 495.019878,119.355507 497.341286,121.468375 C499.662694,123.6494 501.506166,126.375682 502.8717,129.783533 C504.237234,133.191385 504.920001,137.144493 504.920001,141.779171 L504.920001,186.626499 L491.674319,186.626499 L491.674319,145.459651 C491.674319,142.25627 491.264659,139.461832 490.377061,137.144493 C489.489464,134.827154 488.32876,132.986914 486.826672,131.555616 C485.324585,130.124318 483.685943,129.101963 481.774195,128.48855 C479.862447,127.875136 477.882423,127.534351 475.834121,127.534351 C473.103053,127.534351 470.508538,127.943293 468.187129,128.829335 C465.797444,129.715376 463.749143,131.078517 461.973948,132.986914 C460.198754,134.895311 458.83322,137.348964 457.877346,140.279716 C456.921472,143.210469 456.375258,146.686478 456.375258,150.707743 L456.375258,186.558342 L443.129575,186.558342 L443.129575,116.970011 L456.375258,116.970011 L456.375258,127.670665 L456.648365,127.670665 C458.287006,123.922028 461.222905,120.923119 465.319507,118.60578 C469.41611,116.288441 474.19548,115.129771 479.589341,115.129771 Z M219.178951,167.452864 C219.277195,167.501946 219.359065,167.567388 219.446393,167.627377 L219.584207,167.710543 L228.794555,173.416304 L229.015604,183.208126 L219.4,177.244686 L219.178951,167.452864 Z M271.714779,94.4191228 L230.268211,112.272633 L231.29977,156.446267 L273.777897,182.76639 L315.224465,164.91288 L314.192906,120.739246 L271.714779,94.4191228 Z M235.978627,114.849428 L271.014793,136.53132 C272.671054,137.552435 273.754288,139.21347 273.877593,140.934542 L273.888421,141.169552 L274.772615,177.35512 L274.183152,177.612799 L263.572831,171.060377 L262.909686,142.973308 L235.168116,125.819214 L234.910227,115.327976 L235.978627,114.849428 Z M617.713132,127.602508 C614.162743,127.602508 610.953738,128.215921 608.154392,129.442748 C605.28677,130.669575 602.897085,132.305344 600.917061,134.418212 C598.937036,136.53108 597.434948,139.05289 596.342521,142.051799 C595.181817,145.050709 594.70388,148.254089 594.70388,151.798255 C594.70388,155.342421 595.250093,158.613959 596.342521,161.544711 C597.434948,164.543621 598.937036,167.065431 600.917061,169.178299 C602.897085,171.291167 605.28677,172.926936 608.154392,174.153762 C611.022014,175.380589 614.162743,175.994002 617.713132,175.994002 C621.263521,175.994002 624.472527,175.380589 627.271872,174.153762 C630.139494,172.926936 632.529179,171.291167 634.509204,169.178299 C636.489228,167.065431 637.991316,164.543621 639.083744,161.544711 C640.176171,158.545802 640.722385,155.274264 640.722385,151.798255 C640.722385,148.254089 640.176171,144.982552 639.083744,142.051799 C637.991316,139.05289 636.489228,136.53108 634.509204,134.418212 C632.529179,132.305344 630.139494,130.669575 627.271872,129.442748 C624.40425,128.215921 621.263521,127.602508 617.713132,127.602508 Z M203.337152,141.721722 L213.873791,148.237333 L214.094839,158.250023 L203.595042,151.734412 L203.337152,141.721722 Z M417.457531,146.004907 L417.455,146.004 L417.457,146.069 L417.457531,146.004907 Z M397.247624,125.694111 C394.038618,125.694111 391.034443,126.307525 388.303374,127.534351 C385.572306,128.761178 383.319174,130.32879 381.475703,132.305344 C379.632232,134.281897 378.130144,136.462923 377.105993,138.848419 C376.081843,141.233915 375.535629,143.619411 375.535629,146.004907 L417.455,146.004 L417.438414,145.48966 C417.323709,142.780019 416.852144,140.252454 416.02372,137.962377 C415.2044,135.508724 413.907142,133.395856 412.268501,131.555616 C410.62986,129.715376 408.513282,128.352236 405.987043,127.261723 C403.460805,126.239368 400.593183,125.694111 397.247624,125.694111 Z" fill="#FFFFFF" fill-rule="nonzero"></path>
    </g>
</svg>