<?xml version="1.0" encoding="UTF-8"?>
<svg width="888px" height="304px" viewBox="0 0 888 304" version="1.1" xmlns="http://www.w3.org/2000/svg" xmlns:xlink="http://www.w3.org/1999/xlink">
    <title>Kubernetes Logo - White</title>
    <g id="kubernetes-white" stroke="none" stroke-width="1" fill="none" fill-rule="evenodd">
        <path d="M148.985613,73.940378 L148.985613,76.108834 C148.882446,77.4512115 148.676112,78.8968488 148.36661,80.2392263 C147.953942,82.8207215 147.747608,85.5054765 147.850775,88.1902314 C148.057109,89.1195697 148.572945,89.8423884 149.295114,90.3586874 C149.295114,90.6684668 149.398281,91.7010649 149.398281,92.3206237 C163.119507,93.5597414 176.015395,99.7553299 185.506769,109.771531 L187.157443,108.635673 C188.085947,108.738933 188.911284,108.738933 189.839788,108.325894 C192.006297,106.776997 193.966472,104.91832 195.720313,103.059644 C196.648817,102.027046 197.577321,100.994448 198.608992,99.9618495 C198.918493,99.7553299 199.227994,99.4455504 199.537496,99.2390308 C201.291337,97.5868739 204.076849,97.5868739 205.727522,99.2390308 C207.378196,100.994448 207.378196,103.782462 205.727522,105.434619 C205.521188,105.641139 205.314854,105.847658 205.005352,106.054178 C204.695851,106.260698 204.283183,106.570477 204.076849,106.880257 C202.94201,107.603075 201.704005,108.325894 200.466,108.945453 C198.196323,110.28783 196.029814,111.733467 193.966472,113.488884 C193.347469,114.211703 193.037968,115.037781 193.141135,115.96712 C192.934801,116.173639 192.006297,116.896458 191.593628,117.309497 C199.331162,128.874595 202.529342,142.814669 200.672334,156.548224 L202.426175,157.064523 C202.838843,157.890601 203.561013,158.51016 204.283183,158.923199 C206.86236,159.646018 209.441538,160.059057 212.123883,160.162317 C213.568222,160.162317 214.909395,160.265577 216.250567,160.472097 C216.663236,160.575356 217.179071,160.678616 217.488573,160.781876 C219.861416,161.091655 221.615257,163.260111 221.202588,165.738347 C220.893087,168.113322 218.726578,169.868739 216.250567,169.4557 C215.941066,169.4557 215.734732,169.35244 215.42523,169.24918 L215.218896,169.24918 C214.909395,169.14592 214.393559,169.042661 214.084058,169.042661 C212.742886,168.629621 211.401713,168.113322 210.163708,167.493763 C207.687697,166.461165 205.211687,165.738347 202.529342,165.222048 C201.600838,165.222048 200.775501,165.531827 200.053331,166.151386 C199.434329,166.048126 198.815326,165.944866 198.196323,165.841606 C194.37914,179.058862 185.403602,190.210921 173.436218,197.335848 C173.642552,197.955407 173.848886,198.574965 174.158387,199.091264 C173.745719,199.917343 173.642552,200.743421 173.848886,201.67276 C174.880557,204.047735 176.221729,206.422711 177.666069,208.591167 C178.491406,209.727025 179.316743,210.862882 180.038912,212.102 C180.245247,212.41178 180.451581,212.928079 180.657915,213.237858 C181.89592,215.303054 181.173751,217.987809 179.110408,219.226927 C177.047066,220.466045 174.364721,219.743226 173.126716,217.67803 C173.023549,217.47151 172.817215,217.161731 172.714048,216.955211 C172.507714,216.645432 172.301379,216.129133 172.198212,215.819353 C171.682377,214.476976 171.269708,213.134598 170.960207,211.792221 C170.238037,209.210726 169.206366,206.83575 167.968361,204.460774 C167.452525,203.737956 166.627188,203.221657 165.698684,203.118397 C165.595517,202.911877 165.079682,201.982539 164.77018,201.46624 C151.771125,206.422711 137.534064,206.319451 124.638176,201.36298 L123.606505,203.118397 C122.884335,203.221657 122.265332,203.531436 121.749497,204.047735 C120.305157,206.525971 119.170319,209.107466 118.344982,211.895481 C118.035481,213.237858 117.622812,214.580235 117.106977,215.922613 C117.00381,216.232392 116.694308,216.645432 116.591141,217.058471 C115.765804,219.330187 113.289794,220.569304 111.020117,219.743226 C108.750441,218.917147 107.512436,216.438912 108.337773,214.167196 C108.44094,213.857417 108.544107,213.650897 108.750441,213.341118 C108.956775,213.031338 109.163109,212.515039 109.266277,212.20526 C109.988446,210.966142 110.710616,209.830284 111.63912,208.694426 C113.186627,206.422711 114.527799,204.047735 115.55947,201.5695 C115.662637,200.743421 115.55947,199.917343 115.146802,199.091264 L115.972139,197.232588 C104.004754,190.210921 95.1323828,179.058862 90.9025314,165.841606 L89.0455234,166.151386 C88.3233537,165.635087 87.3948497,165.325307 86.5695129,165.222048 C83.9903352,165.738347 81.4111575,166.461165 78.9351469,167.493763 C77.6971416,168.113322 76.3559692,168.526361 75.0147968,169.042661 C74.7052955,169.14592 74.292627,169.24918 73.8799586,169.24918 L73.6736244,169.24918 C71.403948,169.971999 68.9279374,168.732881 68.2057677,166.461165 C67.4835979,164.18945 68.7216032,161.711214 70.9912796,160.988396 C71.3007809,160.885136 71.5071151,160.885136 71.8166165,160.781876 L71.9197836,160.781876 C72.332452,160.678616 72.7451204,160.575356 73.0546217,160.472097 C74.3957941,160.265577 75.8401337,160.162317 77.2844732,160.162317 C79.966818,159.955797 82.5459957,159.542758 85.1251733,158.923199 C85.8473431,158.4069 86.5695129,157.787342 86.9821813,157.064523 L88.8391892,156.548224 C86.8790142,142.814669 89.9740274,128.771336 97.7115605,117.206237 L96.267221,115.96712 C96.267221,115.037781 95.9577197,114.211703 95.4418841,113.488884 C93.4817091,111.733467 91.3151998,110.28783 88.9423563,108.945453 C87.704351,108.325894 86.4663457,107.603075 85.3315076,106.880257 C85.0220062,106.673737 84.7125049,106.363958 84.4030036,106.157438 L84.2998365,106.157438 C82.2364943,104.711801 81.7206588,101.820526 83.2681654,99.7553299 C84.0935023,98.7227318 85.4346747,98.1031729 86.7758471,98.2064327 C87.9106853,98.2064327 88.9423563,98.619472 89.7676932,99.3422906 C90.0771945,99.5488102 90.4898629,99.8585897 90.6961972,100.065109 C91.7278682,100.994448 92.6563722,102.027046 93.5848762,103.162903 C95.338717,105.12484 97.2988921,106.880257 99.4654013,108.429154 C100.290738,108.842193 101.219242,108.945453 102.044579,108.635673 C102.560415,109.048713 103.07625,109.358492 103.592086,109.771531 C111.226452,101.614006 121.130494,95.934717 132.066207,93.4564816 C134.645385,92.8369228 137.32773,92.4238835 139.906908,92.2173639 L140.010075,90.3586874 C140.732244,89.7391286 141.144913,89.0163099 141.454414,88.0869716 C141.557581,85.4022167 141.351247,82.8207215 140.938579,80.1359665 C140.629077,78.793589 140.422743,77.3479517 140.319576,76.0055742 L140.319576,74.7664565 C140.113242,72.3914809 141.867083,70.223025 144.239926,70.0165054 C146.61277,69.8099858 148.779279,71.5654025 148.985613,73.940378 Z M142.898754,169.765479 C142.279751,170.075259 141.660748,170.694817 141.351247,171.314376 L130.312367,191.346779 C138.256234,194.031534 146.715937,194.444573 154.866138,192.585897 C156.413645,192.276117 157.857984,191.863078 159.302324,191.346779 L148.057109,171.314376 C147.025438,169.4557 144.755762,168.732881 142.898754,169.765479 Z M799.339479,129.314959 C802.603558,129.339909 805.858724,129.659354 809.065365,130.269409 C811.542207,130.646438 813.971801,131.286352 816.312975,132.178308 L813.641925,144.380435 C811.734561,143.805912 809.827198,143.235095 807.728913,142.664279 C805.421793,142.096834 803.049202,141.840044 800.674077,141.900719 C795.715673,141.900719 793.426467,143.235095 793.426467,145.903847 C793.46184,146.493137 793.590731,147.07305 793.80831,147.621856 C794.076311,148.261318 794.544635,148.79655 795.142908,149.147122 C795.715673,149.528902 796.668428,150.099718 797.623037,150.672388 C798.766714,151.243205 800.101312,151.624984 801.817754,152.388544 C804.769496,153.443716 807.638224,154.718012 810.399963,156.200782 C812.403074,157.118825 814.165758,158.48915 815.549288,160.20391 C816.86628,161.513519 817.790815,163.165208 818.218485,164.972451 C818.789441,166.95393 819.047113,169.012464 818.982172,171.073514 C819.227933,175.982454 816.919551,180.669939 812.878238,183.468384 C808.874443,186.328026 803.152352,187.662402 795.524752,187.662402 C791.414362,187.788915 787.306485,187.339768 783.320591,186.328026 C781.030816,185.854636 778.794573,185.151774 776.645745,184.230091 L779.314942,171.455294 C781.983901,172.481262 784.724759,173.309452 787.515308,173.933156 C790.084685,174.47945 792.707287,174.735575 795.33383,174.696716 C797.398825,174.848503 799.473432,174.589614 801.437764,173.935009 C802.60516,173.292641 803.279016,172.017992 803.152352,170.691734 C803.152352,169.357358 802.390519,168.404762 800.864999,167.452166 C798.635992,166.121013 796.270131,165.033657 793.80831,164.208891 C791.330035,163.256295 789.040828,162.303699 787.135318,161.349249 C785.310192,160.475596 783.635817,159.316991 782.175061,157.916938 C780.773714,156.49779 779.671315,154.812012 778.933099,152.95936 C778.120589,150.764839 777.732482,148.435957 777.789422,146.096591 C777.575856,141.336188 779.714027,136.774452 783.509659,133.89261 C787.324386,130.842079 792.664633,129.314959 799.339479,129.314959 Z M487.727438,136.752252 C492.303999,141.51894 494.591352,148.576306 494.591352,157.726048 C494.617821,158.747082 494.554555,159.768467 494.402284,160.778433 C494.402284,161.731029 494.211362,162.683625 494.211362,163.638075 L458.736995,163.638075 C459.051243,166.734986 460.729647,169.530727 463.315409,171.264404 C466.49086,173.304858 470.223671,174.30447 473.99405,174.124046 C476.810049,174.163136 479.622422,173.907847 482.385337,173.36234 C484.734154,172.966765 487.035226,172.326995 489.251105,171.453441 L491.347536,184.230091 C490.585703,184.611871 489.442026,184.99365 487.916506,185.564467 C486.373553,186.083212 484.770952,186.403927 483.147171,186.518916 C481.322447,186.891531 479.475461,187.145349 477.617855,187.278769 C475.710492,187.471512 473.61406,187.662402 471.704843,187.662402 C467.273534,187.764523 462.865945,186.987213 458.736995,185.37543 C455.329097,184.021281 452.219509,182.012789 449.583875,179.463403 C447.228415,176.787336 445.415364,173.679227 444.245481,170.311808 C443.244949,166.580166 442.731562,162.734767 442.718108,158.871387 C442.618571,154.502755 443.396492,150.158087 445.009168,146.096591 C446.387603,142.700612 448.39359,139.594679 450.922181,136.941289 C453.260137,134.483058 456.129919,132.592589 459.311614,131.414748 C462.456782,130.123473 465.828563,129.474434 469.228422,129.505849 C476.143508,129.189261 482.867814,131.823294 487.727438,136.752252 Z M654.976713,136.752252 C659.55142,141.51894 661.840627,148.576306 661.840627,157.726048 C661.866482,158.747136 661.802596,159.768522 661.649705,160.778433 C661.649705,161.731029 661.458783,162.683625 661.458783,163.638075 L625.988124,163.638075 C626.302372,166.734986 627.980775,169.530727 630.566538,171.264404 C633.741415,173.304598 637.473556,174.304205 641.243325,174.124046 C644.059943,174.163278 646.872946,173.907989 649.636466,173.36234 C651.984652,172.966639 654.285097,172.326871 656.500379,171.453441 L658.598665,184.230091 C657.836831,184.611871 656.691301,184.99365 655.165781,185.564467 C653.623428,186.083077 652.021457,186.403792 650.398299,186.518916 C648.572958,186.89157 646.725352,187.145387 644.86713,187.278769 C642.96162,187.471512 640.863335,187.662402 638.955971,187.662402 C634.524662,187.764523 630.117073,186.987213 625.988124,185.37543 C622.580226,184.021281 619.470637,182.012789 616.835003,179.463403 C614.478881,176.787492 612.665194,173.679373 611.494756,170.311808 C610.494747,166.580105 609.981981,162.734693 609.969236,158.871387 C609.865941,154.502751 610.643864,150.158073 612.256589,146.096591 C613.635063,142.700633 615.641046,139.594707 618.169602,136.941289 C620.508047,134.482772 623.378499,132.592279 626.560889,131.414748 C629.706056,130.123473 633.077838,129.474434 636.477696,129.505849 C643.392782,129.189261 650.117088,131.823294 654.976713,136.752252 Z M760.817779,136.752252 C765.39434,141.51894 767.681693,148.576306 767.681693,157.726048 C767.707549,158.747136 767.643663,159.768522 767.490771,160.778433 C767.490771,161.731029 767.29985,162.683625 767.29985,163.638075 L731.82919,163.638075 C732.143438,166.734986 733.821842,169.530727 736.407604,171.264404 C739.582481,173.304598 743.314623,174.304205 747.084391,174.124046 C749.90101,174.163292 752.714014,173.908002 755.477532,173.36234 C757.825719,172.966639 760.126163,172.326871 762.341446,171.453441 L764.439731,184.230091 C763.677898,184.611871 762.532368,184.99365 761.006847,185.564467 C759.464494,186.083077 757.862524,186.403792 756.239365,186.518916 C754.414637,186.891501 752.567652,187.145318 750.71005,187.278769 C748.800833,187.471512 746.706255,187.662402 744.797038,187.662402 C740.365729,187.764523 735.95814,186.987213 731.82919,185.37543 C728.421292,184.021281 725.311704,182.012789 722.67607,179.463403 C720.320609,176.787336 718.507558,173.679227 717.337676,170.311808 C716.244288,166.599317 715.729128,162.740638 715.810302,158.871387 C715.707596,154.502625 716.486151,150.157942 718.099509,146.096591 C719.477389,142.700759 721.482741,139.594835 724.010668,136.941289 C726.349114,134.482772 729.219565,132.592279 732.401955,131.414748 C735.547123,130.123473 738.918904,129.474434 742.318763,129.505849 C749.233849,129.189261 755.958155,131.823294 760.817779,136.752252 Z M397.90526,104.528926 L397.90526,131.985565 C399.680525,131.214344 401.53458,130.638894 403.434575,130.269409 C405.445874,129.881556 407.490159,129.690383 409.538509,129.698592 C413.082866,129.63304 416.598237,130.348019 419.835306,131.792821 C422.790229,133.079171 425.403051,135.039095 427.46476,137.515812 C429.658305,140.184 431.222541,143.311951 432.041321,146.667407 C432.90534,150.484886 433.352822,154.384781 433.375919,158.298718 C433.456166,162.384383 432.810359,166.451851 431.468555,170.311808 C430.320541,173.731566 428.432638,176.856243 425.93924,179.463403 C423.340588,181.968864 420.301644,183.973127 416.975188,185.37543 C413.052193,186.731128 408.918783,187.376297 404.769173,187.280622 C402.863663,187.280622 400.9563,187.089733 398.858015,186.900696 C396.759729,186.711659 394.854219,186.518916 392.755934,186.326173 C390.848571,186.137136 388.941207,185.755357 387.033844,185.373577 C385.403089,185.093567 383.805504,184.646417 382.266362,184.039201 L382.266362,107.006788 L397.90526,104.528926 Z M335.544296,130.842079 L335.544296,159.633094 C335.544296,164.590671 336.117062,168.213872 337.45166,170.502698 C338.786258,172.791523 341.264533,173.935009 344.888339,173.935009 C346.099343,173.961714 347.310651,173.897907 348.512144,173.744119 C349.846742,173.55323 350.801351,173.55323 351.945028,173.36234 L351.945028,130.842079 L367.582072,130.842079 L367.39115,184.039201 C364.012778,184.9809 360.571888,185.681969 357.094353,186.137136 C352.744777,186.847355 348.340264,187.166164 343.93373,187.089733 C339.906127,187.236006 335.889085,186.588651 332.111413,185.18454 C326.326624,182.999311 322.122867,177.926342 321.050929,171.837074 C320.272451,168.460545 319.888043,165.005175 319.905398,161.540139 L319.905398,130.842079 L335.544296,130.842079 Z M689.11092,114.63497 L689.11092,130.842079 L707.800858,130.842079 L707.800858,143.805912 L689.11092,143.805912 L689.11092,163.254442 C688.980779,165.966164 689.573107,168.663812 690.827362,171.071661 C691.972892,172.98056 694.451167,173.933156 697.884051,173.933156 C699.606215,173.900817 701.325277,173.773362 703.033376,173.551376 C704.720236,173.244424 706.378723,172.798102 707.99178,172.217 L710.279133,184.419127 C708.256678,185.28065 706.146647,185.920079 703.986131,186.326173 C701.165208,186.915829 698.284585,187.170874 695.403922,187.086026 C691.769313,187.186104 688.148067,186.605293 684.727135,185.373577 C682.157811,184.33054 679.870441,182.696886 678.050436,180.605036 C676.283319,178.36833 675.044536,175.761302 674.426631,172.978707 C673.788544,169.776711 673.469399,166.519373 673.473784,163.254442 L673.473784,117.112832 L689.11092,114.63497 Z M163.532175,159.955797 C163.01634,159.955797 162.500504,160.162317 162.087836,160.368837 C160.230828,161.298175 159.405491,163.466631 160.230828,165.325307 L169.000032,186.596828 C177.459735,181.227318 183.856095,173.173053 187.157443,163.77641 L164.460679,160.059057 C164.151178,159.955797 163.841677,159.955797 163.532175,159.955797 Z M125.463512,160.059057 C125.257178,160.059057 124.947677,160.059057 124.741343,160.162317 L102.250913,163.98293 C105.655428,173.276313 111.948621,181.330578 120.305157,186.596828 L128.971194,165.531827 L128.868027,165.428567 C129.280695,164.705749 129.383863,163.87967 129.177528,163.053592 C128.76486,161.298175 127.217353,160.059057 125.463512,160.059057 Z M585.940904,131.603785 C588.855066,132.585865 591.432788,134.370441 593.377583,136.752252 C595.173067,139.138357 596.470354,141.861071 597.19231,144.758508 C597.991914,148.132004 598.375989,151.590593 598.335987,155.057296 L598.335987,186.137136 L582.697089,186.137136 L582.697089,156.964342 C582.697089,152.006764 582.126177,148.383563 580.791579,146.285627 C579.45698,144.187692 576.976852,143.235095 573.353046,143.235095 C572.142042,143.208377 570.930733,143.272184 569.729241,143.425985 C568.576308,143.448293 567.427839,143.576086 566.298211,143.807765 L566.298211,186.328026 L550.850235,186.328026 L550.850235,132.749124 C558.505955,130.729564 566.389953,129.704285 574.307655,129.698592 C578.274814,129.533163 582.233847,130.181539 585.940904,131.603785 Z M529.109256,129.698592 C530.129738,129.677634 531.15021,129.74086 532.160296,129.887629 C533.375661,129.930199 534.586555,130.057771 535.784102,130.269409 C536.929632,130.460299 538.073309,130.651189 539.407907,130.842079 C540.551584,131.032968 541.697114,131.414748 542.458947,131.601931 L539.789751,144.571325 C538.168258,144.10792 536.509017,143.78853 534.831347,143.616875 C532.820779,143.227887 530.777118,143.035472 528.729266,143.042352 C527.515283,143.104636 526.305572,143.232702 525.105461,143.425985 C524.079233,143.564031 523.060853,143.755177 522.054421,143.998655 L522.054421,186.135283 L506.415523,186.135283 L506.415523,133.70172 C509.661429,132.603604 512.973668,131.712234 516.33233,131.032968 C520.522475,130.078096 524.812198,129.630093 529.109256,129.698592 Z M276.425295,104.528926 L276.425251,150.456926 L276.888724,149.936893 C278.199653,148.465902 279.53062,146.994912 281.001855,145.523921 C282.596291,143.74947 284.185459,141.970294 285.769337,140.186417 C287.294858,138.277518 288.820378,136.561362 290.15683,135.034243 C291.493282,133.507124 292.826026,131.985565 293.778781,130.842079 L312.277798,130.842079 C308.653993,135.036096 305.030187,139.231967 301.408235,143.044206 C297.975352,146.858297 294.161243,150.86266 289.965908,155.057296 C292.265608,157.210755 294.430985,159.50327 296.449832,161.921919 C298.737185,164.590671 300.83547,167.259423 302.933756,169.928175 C305.013284,172.603693 306.923745,175.40639 308.653993,178.319917 C310.370434,181.179559 311.897808,183.657421 313.041485,185.946246 L295.115233,185.946246 C293.969703,184.037348 292.635105,182.132155 291.300506,180.03422 C289.905407,177.723149 288.376673,175.495406 286.722092,173.36234 C285.172104,171.074793 283.451378,168.90767 281.574621,166.879496 C280.05483,164.977383 278.327726,163.250567 276.425295,161.731029 L276.425295,185.755357 L260.788251,185.755357 L260.788251,107.008641 L276.425295,104.528926 Z M406.485615,142.855169 C404.879504,142.85685 403.279228,143.048453 401.718133,143.425985 C400.380869,143.749819 399.096879,144.263454 397.90526,144.951251 L397.90526,173.36234 C398.667093,173.55323 399.621701,173.55323 400.765378,173.744119 C401.909055,173.744119 403.243653,173.935009 404.580105,173.935009 C408.33567,174.104185 411.947355,172.475172 414.305991,169.548248 C416.586919,166.110223 417.721702,162.03892 417.547953,157.916938 C417.547953,147.812746 413.924147,142.855169 406.485615,142.855169 Z M148.160276,141.265772 L141.144913,141.265772 L136.811894,146.738542 L138.359401,153.553689 L144.652594,156.548224 L150.945788,153.553689 L152.493295,146.738542 L148.160276,141.265772 Z M106.171263,124.847463 C100.909741,133.314767 98.7432316,143.330969 99.7749026,153.24391 L121.749497,146.841802 C123.812839,146.325503 125.050844,144.157047 124.431841,142.091851 C124.225507,141.369032 123.812839,140.749473 123.297003,140.233174 L123.297003,140.129914 L106.171263,124.847463 Z M183.030759,124.847463 L166.008186,140.129914 C164.460679,141.575552 164.254345,143.950527 165.595517,145.602684 C166.111353,146.118983 166.730356,146.532023 167.452525,146.738542 L167.452525,146.841802 L189.530286,153.24391 C190.561957,143.227709 188.189114,133.314767 183.030759,124.847463 Z M752.415251,152.578926 L752.426492,152.770324 L752.426492,152.579434 L752.415251,152.578926 Z M479.513251,152.578926 L479.525219,152.770324 L479.525219,152.579434 L479.513251,152.578926 Z M646.763251,152.578926 L646.774494,152.770324 L646.774494,152.579434 L646.763251,152.578926 Z M636.666764,142.091609 C635.092169,142.093142 633.534597,142.417346 632.090204,143.044206 C630.894795,143.53484 629.844574,144.322694 629.039164,145.333031 C628.18277,146.339871 627.534488,147.506458 627.1318,148.765343 C626.724805,150.012695 626.406428,151.287229 626.179045,152.579434 L646.763251,152.578926 L646.750021,152.33644 C646.664421,151.181374 646.416387,150.043389 646.01266,148.956232 C645.6352,147.724733 645.055106,146.564739 644.296219,145.523921 C642.45989,143.210935 639.616029,141.93155 636.666764,142.091609 Z M469.41749,142.091609 C467.84227,142.092889 466.284041,142.417098 464.839076,143.044206 C463.644339,143.535112 462.594783,144.322946 461.789889,145.333031 C460.932793,146.339686 460.283871,147.506292 459.880672,148.765343 C459.47373,150.01271 459.155354,151.287241 458.927917,152.579434 L479.513251,152.578926 L479.500547,152.33641 C479.414413,151.181274 479.165822,150.043297 478.761532,148.956232 C478.384104,147.72472 477.804008,146.564721 477.04509,145.523921 C475.209148,143.211486 472.366115,141.932162 469.41749,142.091609 Z M742.318763,142.091609 C740.743542,142.092889 739.185314,142.417098 737.740349,143.044206 C736.544939,143.53484 735.494718,144.322694 734.689309,145.333031 C733.833536,146.34 733.185886,147.506585 732.783799,148.765343 C732.376182,150.01265 732.057186,151.287185 731.82919,152.579434 L752.415251,152.578926 L752.40182,152.33641 C752.315686,151.181274 752.067095,150.043297 751.662805,148.956232 C751.285377,147.72472 750.705281,146.564721 749.946363,145.523921 C748.110421,143.211486 745.267388,141.932162 742.318763,142.091609 Z M276.425251,150.456926 L276.234373,150.672388 L276.425295,150.672388 L276.425251,150.456926 Z M139.287905,103.885722 C137.740398,104.092242 136.192892,104.298761 134.645385,104.711801 C126.495184,106.570477 118.963985,110.59761 113.08346,116.483419 L131.756706,129.597414 C133.510547,130.836532 135.88339,130.423493 137.121396,128.771336 C137.534064,128.151777 137.843565,127.428958 137.843565,126.70614 L137.946732,126.70614 L139.287905,103.885722 Z M150.120451,103.679203 L151.461624,126.60288 C151.564791,128.771336 153.318632,130.320233 155.485141,130.216973 C156.207311,130.216973 156.92948,129.907194 157.548483,129.494154 L157.65165,129.494154 L176.221729,116.276899 C169.103199,109.358492 160.024494,104.91832 150.120451,103.679203 Z" fill="#FFFFFF" fill-rule="nonzero"></path>
    </g>
</svg>